<svg xmlns="http://www.w3.org/2000/svg" xmlns:xlink="http://www.w3.org/1999/xlink" width="281.078" height="349.353" viewBox="0 0 281.078 349.353"><defs><linearGradient id="a" x1="-1.061" y1="1.312" x2="2.297" y2="0.869" gradientUnits="objectBoundingBox"><stop offset="0" stop-color="#ba00ff"/><stop offset="0.882" stop-color="#00c4ff"/><stop offset="1" stop-color="#00ffc4"/></linearGradient></defs><g transform="matrix(0.259, 0.966, -0.966, 0.259, 183.815, -31.346)"><path d="M.039,487.718a67.606,67.606,0,0,0,3.2,7.039c.983,1.857,1.984,4.1,3.858,5.224,4.082,2.46,9.148-.587,12.93-2.222l33.268-14.4,18.827-8.147c.611-.262.083-1.156-.524-.894l-38.3,16.563c-6.291,2.723-12.536,5.835-18.979,8.171-3.371,1.218-6.677,1.111-8.71-2.181a58.388,58.388,0,0,1-4.569-9.431c-.238-.614-1.239-.345-1,.276Z" transform="translate(-0.002 -310.606)" fill="url(#a)"/><path d="M207.5,413.327q39.069-16.1,77.93-32.692c.611-.262.086-1.153-.521-.894q-38.741,16.532-77.685,32.588c-.607.248-.345,1.253.276,1Z" transform="translate(-135.495 -248.665)" fill="url(#a)"/><path d="M432.2,359.865l25.473-11.042c.611-.262.086-1.156-.521-.894l-25.473,11.042C431.064,359.237,431.592,360.128,432.2,359.865Z" transform="translate(-282.541 -227.829)" fill="url(#a)"/><path d="M1.329,424.229c-1.266-3.271,4.289-5.521,6.494-6.653,2.933-1.494,5.956-2.8,8.972-4.141l19.155-8.492,37.992-16.867,21.67-9.617c.607-.269.079-1.163-.524-.894l-81.256,36.06a91.019,91.019,0,0,0-10.1,5.021c-1.994,1.211-4.4,3.278-3.406,5.866.238.614,1.239.345,1-.276Z" transform="translate(-0.063 -247.237)" fill="url(#a)"/><path d="M275.2,327.448q15.242-6.294,30.235-13.151c10.062-4.6,19.972-9.551,30.155-13.882.614-.259.086-1.153-.521-.894-9.966,4.244-19.679,9.086-29.534,13.592q-15.183,6.957-30.611,13.327c-.607.252-.345,1.253.276,1Z" transform="translate(-179.834 -196.126)" fill="url(#a)"/><path d="M591.5,150.857q32.119-15.131,64.711-29.224c.607-.266.083-1.156-.525-.894q-32.588,14.089-64.711,29.224C590.376,150.246,590.9,151.14,591.5,150.857Z" transform="translate(-386.876 -79.035)" fill="url(#a)"/><path d="M778.5,49.2q33.958-15.135,68.068-29.917,9.707-4.21,19.414-8.392c.611-.262.086-1.153-.521-.894Q831.294,24.694,797.3,39.729q-9.662,4.282-19.324,8.582C777.37,48.58,777.895,49.474,778.5,49.2Z" transform="translate(-509.347 -6.51)" fill="url(#a)"/><path d="M1031.529,4.468a42.83,42.83,0,0,1,8.334-3.168c1.988-.507,3.606-.273,4.879,1.411a27.819,27.819,0,0,1,2.215,3.547c1.38,2.526,2.951,5.324,2.854,8.261a4.708,4.708,0,0,1-2.512,4.275,14.127,14.127,0,0,1-4.044,2.2.519.519,0,0,0,.276,1,16.13,16.13,0,0,0,4.741-2.6,4.931,4.931,0,0,0,2.467-3.413c.562-3.544-1.035-6.66-2.609-9.721-1.315-2.529-2.981-6.211-6.273-6.291a15.616,15.616,0,0,0-5.345,1.318,46.452,46.452,0,0,0-5.521,2.281c-.6.293-.073,1.187.524.894Z" transform="translate(-675.057 0.028)" fill="url(#a)"/><path d="M507.256,334.638a2.277,2.277,0,0,0,1.463-2.153c.059-1.815-.217-3.634-.038-5.445.069-.663-.97-.659-1.035,0a26.774,26.774,0,0,0,0,3.244c.028,1.2.4,2.76-.9,3.451-.59.314-.066,1.208.521.894Z" transform="translate(-331.717 -213.854)" fill="url(#a)"/><path d="M497.86,329.689c.324.942.814,1.812,1.128,2.76.345,1.083.649,2.191.973,3.285a.518.518,0,0,0,1-.276c-.321-1.094-.621-2.2-.973-3.285-.307-.949-.8-1.808-1.128-2.761C498.64,328.788,497.639,329.068,497.86,329.689Z" transform="translate(-326.045 -215.503)" fill="url(#a)"/><path d="M21.115,360.884a14.242,14.242,0,0,0,3.8-.845l4.7-2.07,9.051-3.992q8.854-3.917,17.705-7.854,17.619-7.84,35.2-15.742c23.713-10.638,47.533-21.073,71.084-32.071,12.937-6.042,25.815-12.257,38.472-18.879.59-.311.066-1.2-.525-.894-22.571,11.808-45.766,22.326-69.013,32.75q-35.242,15.808-70.494,31.6-9.762,4.355-19.541,8.682l-9.962,4.406-5.007,2.2a21.439,21.439,0,0,1-5.738,1.708C20.183,359.984,20.459,360.981,21.115,360.884Z" transform="translate(-13.403 -182.371)" fill="url(#a)"/><path d="M12.271,503.974a2.505,2.505,0,0,0-.183,2.07c.21.628,1.211.345,1-.273a1.5,1.5,0,0,1,.079-1.263.518.518,0,0,0-.894-.525Z" transform="translate(-7.824 -329.898)" fill="url(#a)"/><path d="M540.126,123.3l69.652-32.322L679.43,58.659l39.338-18.264c.6-.28.079-1.17-.521-.894L648.618,71.823,578.96,104.166l-39.338,18.261c-.6.28-.079,1.173.521.894Z" transform="translate(-353.241 -25.826)" fill="url(#a)"/><path d="M14.016,372.009Q74.2,344.376,134.79,317.633q17.177-7.591,34.386-15.086c.607-.266.083-1.159-.524-.9q-60.7,26.487-121,53.865-17.095,7.764-34.162,15.6c-.6.279-.079,1.173.521.894Z" transform="translate(-8.662 -197.519)" fill="url(#a)"/><path d="M463.313,124.339l78.775-37.429c25.88-12.3,51.76-24.686,77.823-36.577,14.866-6.787,29.8-13.409,44.859-19.755.6-.255.345-1.256-.276-1-26.384,11.1-52.392,23.071-78.31,35.273q-39.42,18.578-78.734,37.374l-44.659,21.218C462.188,123.731,462.713,124.625,463.313,124.339Z" transform="translate(-302.923 -19.335)" fill="url(#a)"/><path d="M1051.89,31.5c1.446-1.035,3.33-2.719,2.416-4.724-1.035-2.312-3.906-.832-5.566-.141-.6.252-.345,1.256.276,1,.969-.4,3.451-1.725,4.21-.642,1,1.442-.835,2.871-1.86,3.616-.535.386,0,1.287.521.894Z" transform="translate(-686.63 -16.708)" fill="url(#a)"/><path d="M448.215,248.673c4.31-1.967,5.556-6.687,6.87-10.818a24.689,24.689,0,0,1,9.638-12.767c4.572-3.261,9.924-5.942,15.594-6.439,5.321-.466,10.787.531,15.708-2.07.587-.314.065-1.208-.524-.894-5.238,2.761-11.263,1.263-16.884,2.133A34.617,34.617,0,0,0,464.2,224.2a26.029,26.029,0,0,0-8.91,10.138c-2.094,4.627-2.367,11.042-7.591,13.458-.607.276-.083,1.17.521.9Z" transform="translate(-293.036 -141.206)" fill="url(#a)"/><path d="M585.5,81.278q30.994-14.293,62.112-28.3,31.263-14.11,62.657-27.923,17.643-7.771,35.342-15.449c.607-.266.083-1.159-.524-.894q-31.3,13.592-62.5,27.46-31.336,13.934-62.557,28.161Q602.484,72.327,584.972,80.4c-.6.279-.079,1.17.521.894Z" transform="translate(-382.942 -5.668)" fill="url(#a)"/><path d="M1049.709,8.725a3.253,3.253,0,0,1,4.141.79,9.439,9.439,0,0,1,1.691,3.061c.535,1.435.732,2.761-.459,3.968a8.69,8.69,0,0,1-2.8,1.636c-.611.269-.083,1.163.521.894,1.494-.656,3.105-1.418,3.882-2.947s.183-3.106-.449-4.6a8.289,8.289,0,0,0-2.671-3.654c-1.449-1.035-2.833-.69-4.369-.041-.611.262-.083,1.156.521.894Z" transform="translate(-686.975 -4.716)" fill="url(#a)"/><path d="M1059.105,40.005l2.954,6.625c.269.607,1.163.083.894-.521L1060,39.488c-.269-.607-1.163-.083-.894.521Z" transform="translate(-693.61 -25.675)" fill="url(#a)"/><path d="M1049.991,5.937l-.172-.69a.518.518,0,0,0-1,.276l.172.69a.518.518,0,1,0,1-.276Z" transform="translate(-686.898 -3.188)" fill="url(#a)"/><path d="M1061.892,5.3a3.037,3.037,0,0,1,1.725-1.532c.625-.217.345-1.218-.276-1a4.089,4.089,0,0,0-2.329,2.008c-.3.594.59,1.118.894.521Z" transform="translate(-694.851 -1.784)" fill="url(#a)"/><path d="M621.22,243.6a19.555,19.555,0,0,1,2.509,4.293c.459,1.256.542,2.6,1.035,3.851a81.166,81.166,0,0,0,4.244,8.309c.311.59,1.2.066.894-.525-1.522-2.9-3.689-6.015-4.51-9.21a21.135,21.135,0,0,0-.914-3.347,22.89,22.89,0,0,0-2.35-3.879c-.376-.545-1.277-.028-.894.521Z" transform="translate(-406.806 -159.047)" fill="url(#a)"/><path d="M498.284,273.093c2.509-1.3,5.521-.89,8.244-1.059a47.351,47.351,0,0,0,6.718-.883,33.685,33.685,0,0,0,12.826-5.4,26.273,26.273,0,0,0,8.068-9.068,28.7,28.7,0,0,0,2.15-5.942c.739-2.761,1.619-5.632,4.279-7.108.58-.324.059-1.221-.524-.9-4.12,2.295-4.293,7.222-5.79,11.184a24.263,24.263,0,0,1-8.7,10.939,33.75,33.75,0,0,1-13.765,5.521,49.689,49.689,0,0,1-7.671.7c-2.215.045-4.344.066-6.356,1.108-.59.307-.066,1.2.525.894Z" transform="translate(-325.83 -158.922)" fill="url(#a)"/><path d="M503.572,284.556c5.217-1.008,10.642-.2,15.773-1.767a42.849,42.849,0,0,0,13.378-6.653,32.647,32.647,0,0,0,8.188-9.21,32.288,32.288,0,0,0,2.629-5.607c.783-2.191,1.008-5.242,3.106-6.622.552-.366.035-1.263-.524-.894a6.779,6.779,0,0,0-2.6,4.048,40.621,40.621,0,0,1-2.367,6.467,31.747,31.747,0,0,1-8.226,10.352,40.965,40.965,0,0,1-13.851,7.126c-5.117,1.56-10.559.759-15.773,1.767-.652.124-.376,1.125.276,1Z" transform="translate(-329.386 -166.158)" fill="url(#a)"/><path d="M555.3,334.853a10.832,10.832,0,0,1,.88,1.825c.231.618,1.232.345,1-.276a12.663,12.663,0,0,0-.987-2.07.518.518,0,0,0-.894.521Z" transform="translate(-363.647 -218.798)" fill="url(#a)"/><path d="M588.673,316.814a6.866,6.866,0,0,1,1.27,1.991.518.518,0,1,0,.894-.521,7.613,7.613,0,0,0-1.432-2.2c-.452-.49-1.18.242-.732.732Z" transform="translate(-385.45 -206.897)" fill="url(#a)"/><path d="M570.636,322.1c-2.281,4.075-6.456,5.914-11,5.973a.518.518,0,0,0,0,1.035c4.91-.066,9.441-2.091,11.9-6.484a.518.518,0,1,0-.894-.524Z" transform="translate(-366.195 -210.779)" fill="url(#a)"/><path d="M498.775,294a41.481,41.481,0,0,0,30.3-5.135c9.317-5.759,16.239-15.142,15.835-26.442-.024-.666-1.059-.669-1.035,0,.4,11.128-6.556,20.311-15.8,25.839A40.428,40.428,0,0,1,499.051,293c-.649-.142-.928.856-.276,1Z" transform="translate(-326.421 -171.529)" fill="url(#a)"/><path d="M488.623,303.595a43.516,43.516,0,0,0,31.981-2.5c10.352-5.131,18.5-14.355,19.134-26.26.035-.663-1-.663-1.035,0-.621,11.732-8.889,20.728-19.134,25.614a42.488,42.488,0,0,1-30.676,2.146c-.638-.2-.911.8-.273,1Z" transform="translate(-319.775 -179.665)" fill="url(#a)"/><path d="M485.149,310.955a46.032,46.032,0,0,0,33.637-1.76c10.614-4.9,19.217-13.886,20.162-25.946.052-.663-.983-.659-1.035,0-.932,11.881-9.7,20.632-20.166,25.286a45.108,45.108,0,0,1-32.326,1.422C484.79,309.747,484.518,310.744,485.149,310.955Z" transform="translate(-317.506 -185.175)" fill="url(#a)"/><path d="M560.166,329.1c3.382-2.371,6.808-4.714,10.842-5.814a.518.518,0,0,0-.276-1c-4.12,1.125-7.629,3.5-11.087,5.918C559.1,328.589,559.62,329.486,560.166,329.1Z" transform="translate(-366.38 -211.06)" fill="url(#a)"/><path d="M482.885,359.608l9.941,19.669c1.542,3.047,2.881,6.384,4.789,9.224a12.682,12.682,0,0,0,5.811,4.427c11.166,4.758,25.255,2.07,35.152-4.417a41.94,41.94,0,0,0,13.092-13.8.518.518,0,0,0-.894-.524,40.556,40.556,0,0,1-26.964,19.237,36.221,36.221,0,0,1-18.147-.752c-2.961-.977-5.773-2.447-7.457-5.176-1.594-2.574-2.812-5.435-4.175-8.137l-10.255-20.283c-.3-.594-1.194-.072-.894.521Z" transform="translate(-316.218 -234.988)" fill="url(#a)"/><path d="M644.088,291.1c1.543,3.175,3.019,6.391,4.645,9.524,1.587,3.047,3.578,5.914,5.276,8.913s3.83,6.1,4.413,9.617a14.493,14.493,0,0,1-2.07,10.007c-.345.566.542,1.087.894.521a15.529,15.529,0,0,0,2.384-8.758c-.131-3.606-1.725-6.587-3.451-9.662-1.86-3.285-3.875-6.474-5.77-9.734-2.029-3.506-3.644-7.291-5.414-10.935-.29-.6-1.184-.076-.894.521Z" transform="translate(-421.806 -190.137)" fill="url(#a)"/><path d="M19.047,395.284c2.215,2.874,6.411,2.312,9.41,1.08,5.687-2.333,11.225-5.224,16.846-7.754q17.136-7.7,34.465-14.9c11.387-4.769,22.826-9.427,34.162-14.324s22.837-9.534,34.22-14.386c12.809-5.462,25.39-11.442,37.982-17.384.6-.283.076-1.177-.521-.894-10.68,5.038-21.342,10.1-32.15,14.838-10.928,4.807-22.043,9.165-33.013,13.879-21.815,9.372-43.824,18.251-65.587,27.792q-9.051,3.975-18.037,8.1c-3.081,1.415-6.156,3.178-9.351,4.293-2.346.814-5.8,1.38-7.536-.866-.4-.521-1.3,0-.894.524Z" transform="translate(-12.405 -213.938)" fill="url(#a)"/><path d="M609.329,260.029a38.1,38.1,0,0,0,3.968.186.518.518,0,1,0,0-1.035,38.072,38.072,0,0,1-3.968-.186C608.667,258.925,608.67,259.96,609.329,260.029Z" transform="translate(-398.746 -169.612)" fill="url(#a)"/><path d="M622.829,262a15.2,15.2,0,0,0,2.222,2.267c.507.421,1.246-.307.732-.735a15.154,15.154,0,0,1-2.222-2.264C623.147,260.75,622.419,261.485,622.829,262Z" transform="translate(-407.832 -170.988)" fill="url(#a)"/><path d="M449.242,241.731c3.133-3.257,3.4-7.961,5.3-11.884,2.346-4.852,6.311-8.554,10.728-11.536a36.248,36.248,0,0,1,13.948-5.825,60.914,60.914,0,0,1,8.83-.6,17.709,17.709,0,0,0,7.2-1.242c.6-.28.079-1.17-.525-.894-3,1.38-6.5,1.07-9.721,1.184a40.988,40.988,0,0,0-7.457.828,37.892,37.892,0,0,0-13.271,5.977,32.022,32.022,0,0,0-9.834,10.076,29.155,29.155,0,0,0-2.529,6.142c-.773,2.543-1.511,5.076-3.4,7.043C448.048,241.479,448.779,242.214,449.242,241.731Z" transform="translate(-293.648 -137.328)" fill="url(#a)"/><path d="M582.125,208.01l3.171-1.567c.6-.293.072-1.187-.521-.894l-3.175,1.567C581,207.409,581.528,208.3,582.125,208.01Z" transform="translate(-380.737 -134.573)" fill="url(#a)"/><path d="M12.013,508.945a18.046,18.046,0,0,0,2.415,5.176c.411.525,1.139-.214.732-.732a17.025,17.025,0,0,1-2.133-4.714c-.228-.621-1.228-.345-1,.276Z" transform="translate(-7.855 -332.909)" fill="url(#a)"/><path d="M16.58,512.917a5.651,5.651,0,0,1-1.725-.663.518.518,0,0,0-.507.9,6.454,6.454,0,0,0,1.957.766c.652.138.928-.859.276-1Z" transform="translate(-9.224 -335.439)" fill="url(#a)"/><path d="M632.014,131.4q58.661-27.7,117.575-54.866,16.522-7.619,33.061-15.183c.6-.28.079-1.17-.525-.894q-58.979,27-117.713,54.552-16.47,7.712-32.916,15.5c-.6.283-.076,1.177.524.894Z" transform="translate(-413.414 -39.554)" fill="url(#a)"/><path d="M628.018,122.55Q686.752,95,745.72,67.964q16.539-7.591,33.092-15.117c.607-.273.083-1.166-.521-.894q-59.041,26.9-117.837,54.289-16.491,7.685-32.961,15.414c-.6.283-.076,1.177.521.894Z" transform="translate(-410.791 -33.983)" fill="url(#a)"/><path d="M1070.58,26.209c2.136,4.048-2.44,6.943-5.583,8.247-.607.248-.345,1.253.276,1,3.8-1.57,8.7-5.031,6.212-9.765-.311-.59-1.2-.069-.894.521Z" transform="translate(-697.276 -16.644)" fill="url(#a)"/><path d="M1070.769,22.6a4.34,4.34,0,0,0,3.451-1.132c.435-.5-.293-1.235-.731-.732a3.457,3.457,0,0,1-2.736.828.518.518,0,0,0,0,1.035Z" transform="translate(-700.944 -13.462)" fill="url(#a)"/><path d="M16.373,494.264l.932,2.07c.276.6,1.166.079.894-.524l-.932-2.07c-.273-.607-1.166-.079-.894.521Z" transform="translate(-10.69 -323.18)" fill="url(#a)"/><path d="M4.912,508.05l-3.2,1.09c-.628.21-.345,1.211.276,1l3.2-1.094c.628-.214.345-1.215-.276-1Z" transform="translate(-0.889 -332.705)" fill="url(#a)"/><path d="M40.61,539.919a7.613,7.613,0,0,0,1.208,2.07.519.519,0,1,0,.732-.735,3.221,3.221,0,0,1-.514-.832l-.531-1.035c-.307-.59-1.2-.069-.894.525Z" transform="translate(-26.556 -353.083)" fill="url(#a)"/><path d="M11.294,528.779l3.285-2.146c.556-.345.038-1.26-.525-.894l-3.285,2.146C10.214,528.251,10.735,529.145,11.294,528.779Z" transform="translate(-6.898 -344.258)" fill="url(#a)"/><path d="M559.618,215.908l-.345,1.5c-.145.649.852.925,1,.276l.345-1.5C560.76,215.535,559.763,215.259,559.618,215.908Z" transform="translate(-366.277 -141.153)" fill="url(#a)"/><path d="M457.147,288.7a5.519,5.519,0,0,1,1.6.362c.625.235.894-.763.276-1a6.462,6.462,0,0,0-1.877-.4C456.484,287.622,456.484,288.658,457.147,288.7Z" transform="translate(-299.076 -188.392)" fill="url(#a)"/><path d="M12.253,407.866c2.364,3.019,7.091,2.088,10.11.69q8.561-3.947,17.181-7.778,17.464-7.726,35.142-14.959c11.425-4.707,22.885-9.317,34.255-14.148,11.674-4.966,23.465-9.638,35.155-14.562,12.906-5.438,25.594-11.387,38.3-17.278.6-.28.079-1.173-.521-.894-10.932,5.083-21.857,10.193-32.923,14.983-11.177,4.831-22.543,9.234-33.761,13.986C92.9,377.341,70.4,386.264,48.205,395.861q-9.224,4-18.378,8.147c-3.106,1.4-6.232,3.226-9.486,4.227-2.415.749-5.607,1.135-7.357-1.1C12.574,406.61,11.845,407.348,12.253,407.866Z" transform="translate(-7.947 -221.937)" fill="url(#a)"/><path d="M597.353,495.1l41.367-19.2c.6-.283.079-1.173-.524-.894l-41.363,19.2C596.228,494.484,596.753,495.378,597.353,495.1Z" transform="translate(-390.71 -311.054)" fill="url(#a)"/><path d="M609.353,519.1l41.367-19.2c.6-.283.079-1.173-.524-.894l-41.363,19.2C608.228,518.484,608.753,519.377,609.353,519.1Z" transform="translate(-398.569 -326.772)" fill="url(#a)"/><path d="M586.353,474.1l41.367-19.2c.6-.283.079-1.173-.525-.894l-41.363,19.2C585.228,473.484,585.753,474.378,586.353,474.1Z" transform="translate(-383.506 -297.3)" fill="url(#a)"/><path d="M737.636,342.772l-13.258-26.087c-.3-.593-1.194-.069-.894.525L736.735,343.3c.3.594,1.194.069.894-.525Z" transform="translate(-473.794 -207.227)" fill="url(#a)"/><path d="M712.714,350.19l-12.926-25.766c-.3-.594-1.194-.072-.894.525l12.926,25.766C712.121,351.308,713.015,350.783,712.714,350.19Z" transform="translate(-457.689 -212.295)" fill="url(#a)"/><path d="M493.884,453.359,480.236,428.1c-.318-.587-1.211-.062-.894.525l13.641,25.255c.318.587,1.211.066.894-.525Z" transform="translate(-313.894 -280.201)" fill="url(#a)"/><path d="M472.7,464.32l-13.458-26.225c-.3-.594-1.2-.069-.894.525l13.458,26.225c.3.59,1.2.069.894-.525Z" transform="translate(-300.15 -286.742)" fill="url(#a)"/><path d="M642.554,540.439l1.932,3.4a.518.518,0,0,0,.894-.521l-1.932-3.406a.518.518,0,1,0-.894.524Z" transform="translate(-420.784 -353.43)" fill="url(#a)"/><path d="M693.555,516.439l1.932,3.4a.518.518,0,0,0,.894-.521l-1.932-3.406a.518.518,0,1,0-.894.525Z" transform="translate(-454.185 -337.712)" fill="url(#a)"/><path d="M649.027,535.124l17.6-8.282c.6-.283.079-1.173-.521-.894l-17.6,8.282C647.906,534.516,648.43,535.406,649.027,535.124Z" transform="translate(-424.555 -344.416)" fill="url(#a)"/><path d="M648.327,535.512c2.678,2.626,7.15-.183,9.872-1.411,2.17-.98,4.355-1.984,6.463-3.106,1.636-.859,2.091-1.922,2.2-3.741.041-.666-.994-.663-1.035,0-.135,2.25-1.68,2.85-3.451,3.709-1.38.666-2.733,1.325-4.117,1.96-2.233,1.035-7,4.01-9.21,1.839-.476-.466-1.208.266-.732.735Z" transform="translate(-424.503 -344.98)" fill="url(#a)"/><path d="M662.281,527.678c.5,1.725,2.56,1.356,3.83.807a2.351,2.351,0,0,0,1.242-3.423.518.518,0,0,0-.894.521c1.128,1.919-2.809,3.106-3.182,1.819a.518.518,0,0,0-1,.276Z" transform="translate(-433.74 -343.713)" fill="url(#a)"/><path d="M458.5,431.086c2.012-1.68,4.558-2.6,6.932-3.647.607-.269.079-1.163-.524-.894-2.471,1.094-5.045,2.07-7.139,3.8-.514.428.221,1.156.732.732Z" transform="translate(-299.694 -279.316)" fill="url(#a)"/><path d="M498.947,505.8a73.014,73.014,0,0,1,7.184-4.3c.59-.311.066-1.2-.524-.894a72.938,72.938,0,0,0-7.181,4.3C497.878,505.276,498.4,506.173,498.947,505.8Z" transform="translate(-326.283 -327.812)" fill="url(#a)"/><path d="M519.23,501.3a19.29,19.29,0,0,0,4.4,4.106,11.2,11.2,0,0,0,5.483,1.38,38.246,38.246,0,0,0,13.768-2.222c.625-.217.345-1.218-.276-1a38.3,38.3,0,0,1-12.264,2.195,11.825,11.825,0,0,1-5.932-1.1,17.052,17.052,0,0,1-4.434-4.086c-.435-.5-1.166.228-.732.731Z" transform="translate(-339.985 -327.724)" fill="url(#a)"/><path d="M586.215,510.049a114.047,114.047,0,0,0,7.937,15.583c.345.559,1.256.038.894-.521a111.377,111.377,0,0,1-7.937-15.583C586.836,508.92,585.946,509.445,586.215,510.049Z" transform="translate(-383.899 -333.52)" fill="url(#a)"/><path d="M704.924,454.679q4.438,7.422,8.213,15.211c.29.6,1.184.076.894-.521q-3.775-7.785-8.212-15.214a.518.518,0,0,0-.894.524Z" transform="translate(-461.632 -297.263)" fill="url(#a)"/><path d="M731.934,391.593a17.547,17.547,0,0,1-.825,17.561c-3.247,4.983-9.255,8.244-14.469,10.79-.6.293-.072,1.184.524.894,5.7-2.788,12.2-6.418,15.425-12.129a18.634,18.634,0,0,0,.238-17.654c-.3-.593-1.2-.069-.894.525Z" transform="translate(-469.179 -255.934)" fill="url(#a)"/><path d="M729.391,434.563a39.986,39.986,0,0,0,9.69-6.039,22.843,22.843,0,0,0,6.856-7.892,15.871,15.871,0,0,0,1.108-10.007c-.794-3.927-3.023-7.5-4.831-11.042-.3-.594-1.194-.072-.894.521,3.285,6.446,7.247,13.309,3.451,20.5a23.079,23.079,0,0,1-6.96,7.591,37.492,37.492,0,0,1-8.71,5.373c-.614.238-.345,1.239.276,1Z" transform="translate(-477.285 -261.519)" fill="url(#a)"/><path d="M763.875,397.983c.2.369.407.728.625,1.084.345.566,1.246.045.894-.525-.218-.345-.428-.714-.625-1.08C764.455,396.875,763.561,397.4,763.875,397.983Z" transform="translate(-500.244 -260.132)" fill="url(#a)"/><path d="M763.276,396l.731,1.287a.518.518,0,0,0,.894-.521l-.714-1.287a.518.518,0,0,0-.894.521Z" transform="translate(-499.866 -258.847)" fill="url(#a)"/><path d="M763.343,394.792a14.173,14.173,0,0,0,1.215,2.868c.324.583,1.218.062.894-.521a12.947,12.947,0,0,1-1.111-2.619A.517.517,0,0,0,763.343,394.792Z" transform="translate(-499.923 -258.136)" fill="url(#a)"/><path d="M670.859,314.5c-4.141-4.227-9.631-6.235-15.473-4.727a.521.521,0,0,0,.276,1c5.487-1.422,10.594.493,14.465,4.458C670.594,315.709,671.325,314.977,670.859,314.5Z" transform="translate(-429.013 -202.545)" fill="url(#a)"/><path d="M649.17,295.853a6.565,6.565,0,0,1,3.057-.759c1.225-.172,2.457-.3,3.692-.376a29.769,29.769,0,0,1,7.05.345,20.783,20.783,0,0,1,6.135,2.088,14.2,14.2,0,0,1,5.1,5.007c.369.549,1.266.031.894-.524a15.351,15.351,0,0,0-5.2-5.235,21.563,21.563,0,0,0-6.946-2.388,32.013,32.013,0,0,0-7.664-.293c-2.07.152-5.176.076-6.843,1.4-.525.414.214,1.142.732.732Z" transform="translate(-424.566 -192.285)" fill="url(#a)"/><path d="M699.3,319.4a87.843,87.843,0,0,0,8.282-3.061c.611-.262.086-1.156-.521-.894a85.5,85.5,0,0,1-8.033,2.957C698.387,318.607,698.657,319.6,699.3,319.4Z" transform="translate(-457.576 -206.557)" fill="url(#a)"/><path d="M704.155,417.956a74.675,74.675,0,0,0,6.556-4.11,10.729,10.729,0,0,0,3.827-4.551c1.843-3.865,2.467-8.154.728-12.167-.262-.607-1.156-.083-.894.525,1.743,4.02.763,8.42-1.249,12.143-1.832,3.389-6.235,5.445-9.5,7.267-.58.324-.058,1.222.525.894Z" transform="translate(-460.659 -259.906)" fill="url(#a)"/><path d="M737.3,396.419a35.132,35.132,0,0,1,8.409-2.243c.656-.09.376-1.087-.276-1a34.966,34.966,0,0,0-8.409,2.243C736.419,395.667,736.682,396.671,737.3,396.419Z" transform="translate(-482.478 -257.492)" fill="url(#a)"/><path d="M497.28,514.541c2.1,3.734,3.972,7.84,6.9,11.008a22.3,22.3,0,0,0,8.779,5.773,22.754,22.754,0,0,0,11.018.973c4.193-.6,8.934-1.639,12.688-3.661.587-.317.066-1.211-.521-.894-3.4,1.825-7.7,2.761-11.48,3.406a22.435,22.435,0,0,1-11.429-.821,21.252,21.252,0,0,1-8.492-5.707c-2.761-3.061-4.555-7.036-6.556-10.6a.518.518,0,0,0-.894.521Z" transform="translate(-325.654 -336.476)" fill="url(#a)"/><path d="M500.3,519.719a17.133,17.133,0,0,0,14.614,7.592c6.767-.135,13.9-.783,20.11-3.627.6-.279.079-1.17-.521-.894-5.742,2.626-12.1,3.106-18.33,3.451-5.956.3-11.591-1.932-14.979-7.019-.366-.552-1.263-.034-.894.524Z" transform="translate(-327.609 -339.891)" fill="url(#a)"/><path d="M457.024,394.115c-3.213-8.551,2.9-18.085,10.166-22.378a.518.518,0,0,0-.521-.894c-7.643,4.5-14.02,14.565-10.645,23.547C456.257,395.009,457.258,394.736,457.024,394.115Z" transform="translate(-298.058 -242.828)" fill="url(#a)"/><path d="M479.287,400.661c-2.9-5.6.411-11.732,5.259-14.876.559-.345.041-1.256-.521-.894-5.345,3.451-8.8,10.173-5.632,16.291C478.7,401.775,479.591,401.251,479.287,400.661Z" transform="translate(-312.524 -252.013)" fill="url(#a)"/><path d="M501.412,410.07a18.839,18.839,0,0,0,6.418,25.759c4.614,2.73,10.352,4,15.635,4.521A32.306,32.306,0,0,0,539.832,438c.607-.269.083-1.159-.525-.894a30.96,30.96,0,0,1-14.955,2.284,40.22,40.22,0,0,1-14.952-3.882,17.8,17.8,0,0,1-7.1-24.921.519.519,0,1,0-.9-.521Z" transform="translate(-326.66 -268.389)" fill="url(#a)"/><path d="M616.023,475.436l16.563-7.592c.607-.276.083-1.17-.521-.894L615.5,474.542C614.9,474.822,615.422,475.712,616.023,475.436Z" transform="translate(-402.938 -305.777)" fill="url(#a)"/><path d="M666.249,338.14c2.46-.745,6.446,1.318,8.554,2.495a15.889,15.889,0,0,1,5.459,5,19.293,19.293,0,0,1,3.047,12.788c-.6,5.418-3.747,10.179-7.305,14.165a42.785,42.785,0,0,1-11.732,9.182c-.587.314-.066,1.208.521.894a43.367,43.367,0,0,0,13.019-10.611c3.6-4.375,6.436-9.338,6.625-15.121a19.853,19.853,0,0,0-4.413-13.309,17.572,17.572,0,0,0-6.284-4.672c-2.222-1.014-5.311-2.553-7.774-1.8a.517.517,0,0,0,.273,1Z" transform="translate(-434.885 -220.666)" fill="url(#a)"/></g></svg>