<svg xmlns="http://www.w3.org/2000/svg" width="578.07" height="566.118"><defs><linearGradient id="a" x1="-.951" y1="-1.518" x2="2.297" y2=".869" gradientUnits="objectBoundingBox"><stop offset="0" stop-color="#ba00ff"/><stop offset=".882" stop-color="#00c4ff"/><stop offset="1" stop-color="#00ffc4"/></linearGradient></defs><path d="M260.336 209.474c-32.272 46.683-65.193 92.91-98.335 138.986-32.962 45.855-65.069 92.593-100.364 136.653-.331.414.248.994.594.58 34.771-43.439 66.408-89.473 98.9-134.638 33.666-46.807 67.139-93.766 99.922-141.208.3-.442-.414-.856-.718-.414z" transform="translate(23.425 79.639)" fill="url(#a)"/><path d="M235.4 197.941c43.08 30.229 85.7 61.052 128.205 92.082 41.686 30.436 84.2 60.072 124.23 92.62.414.331 1.008-.248.594-.58-39.422-32.038-81.219-61.2-122.228-91.1-43.218-31.555-86.574-62.929-130.386-93.669-.442-.317-.856.4-.428.7z" transform="translate(89.477 75.064)" fill="url(#a)"/><path d="M214.3 238.973c27.607-40.112 55.752-79.852 84.076-119.44S354.139 39.75 384.41 1.749c.331-.414-.262-.994-.593-.58-29.746 37.352-56.8 76.912-84.587 115.768-28.863 40.32-57.546 80.777-85.65 121.649-.3.442.414.856.718.414z" transform="translate(81.223 .448)" fill="url(#a)"/><path d="M6.713 47.815c43.011 25.978 84.2 55.144 125.734 83.317 42.984 29.1 85.829 58.4 128.247 88.341.442.3.856-.414.428-.718-42.431-29.912-85.277-59.216-128.26-88.341C91.272 102.2 50.138 73.075 7.169 47.1c-.456-.276-.87.442-.414.718z" transform="translate(2.514 17.947)" fill="url(#a)"/><path d="M227.711 211.817l33.859 22.844c.442.3.856-.414.414-.718L228.166 211.1c-.442-.29-.856.414-.414.718z" transform="translate(86.569 80.319)" fill="url(#a)"/><path d="M227.862 208.788l256.549 176.683c.442.3.856-.414.414-.718L228.276 208.07c-.442-.3-.856.414-.414.7z" transform="translate(86.611 79.165)" fill="url(#a)"/><path d="M266.877 193.242L105.378 424.7 58.93 491.311c-.3.428.414.842.718.414l161.5-231.454 46.476-66.615c.3-.442-.414-.856-.718-.414z" transform="translate(22.405 73.482)" fill="url(#a)"/><path d="M263.63 191.238L102.863 423.824 56.58 490.77c-.3.442.414.856.718.414l160.781-232.572 46.269-66.946c.3-.442-.414-.856-.718-.414z" transform="translate(21.511 72.725)" fill="url(#a)"/><path d="M242.062 206.807L55.579 480.734c-.29.442.428.856.718.414l186.482-273.982c.3-.442-.414-.856-.718-.414z" transform="translate(21.132 78.62)" fill="url(#a)"/><path d="M263.429 235.157L1.166 53.45c-.442-.3-.856.414-.414.718l262.222 181.707c.442.3.856-.414.414-.718z" transform="translate(.234 20.359)" fill="url(#a)"/><path d="M194.052 190.328L158.164 164.1c-.428-.317-.842.4-.414.718l35.889 26.226c.427.32.841-.398.413-.716z" transform="translate(59.948 62.441)" fill="url(#a)"/><path d="M212.32 174.814l5.521-7.826c.317-.442-.4-.856-.718-.428l-5.523 7.84c-.318.428.4.842.7.414z" transform="translate(80.468 63.337)" fill="url(#a)"/><path d="M184.932 184.958l5.756 4.141c.442.317.856-.4.428-.718l-5.77-4.141c-.446-.303-.856.414-.414.718z" transform="translate(70.283 70.102)" fill="url(#a)"/><path d="M285.514 244.727L1.165 50.1c-.428-.3-.856.414-.414.718L285.1 245.445c.441.303.855-.414.414-.718z" transform="translate(.235 19.085)" fill="url(#a)"/><path d="M287.515 241.347L3.166 48.1c-.442-.3-.856.414-.414.718L287.1 242.065c.442.303.856-.415.415-.718z" transform="translate(.995 18.324)" fill="url(#a)"/><path d="M391.8 1.99q-89.725 130.22-180.22 259.847c-.3.442.414.856.718.414q90.55-129.613 180.216-259.834c.304-.441-.414-.855-.714-.427z" transform="translate(80.462 .746)" fill="url(#a)"/><path d="M390.315.3L208.58 259.719c-.3.442.414.856.718.414L391.032.714c.304-.428-.414-.842-.717-.414z" transform="translate(79.321 .103)" fill="url(#a)"/><path d="M496.512 387.488L212.164 190.1c-.428-.3-.842.414-.414.718L496.1 388.206c.44.303.854-.415.412-.718z" transform="translate(80.486 72.331)" fill="url(#a)"/><path d="M495.892 389.107L210.164 193.1c-.428-.3-.842.414-.414.718l285.728 196.007c.442.304.856-.414.414-.718z" transform="translate(79.726 73.472)" fill="url(#a)"/><path d="M204.32 217.814l5.521-7.826c.318-.442-.4-.856-.718-.428l-5.523 7.84c-.318.428.4.842.7.414z" transform="translate(77.426 79.691)" fill="url(#a)"/><path d="M387.317 5.242l-158.738 231.9c-.29.442.428.856.718.414l158.738-231.9c.3-.442-.414-.856-.718-.414z" transform="translate(86.93 1.98)" fill="url(#a)"/><circle cx="2.761" cy="2.761" r="2.761" transform="translate(287.57 289.707)" fill="none"/><path d="M199.464 222.9a37.269 37.269 0 0 0 21.768.552c7.55-1.974 12.257-6.46 17.793-11.705.386-.359-.207-.952-.594-.58-5.342 5.066-10.076 9.51-17.406 11.484a36.386 36.386 0 0 1-21.34-.552.415.415 0 0 0-.221.8z" transform="translate(75.766 80.325)" fill="url(#a)"/><path d="M202.3 217.958c11.857 4.721 26.42-1.049 35.475-9.207.4-.359-.193-.939-.594-.58-8.848 7.965-23.134 13.583-34.66 8.986-.501-.193-.709.608-.221.801z" transform="translate(76.855 79.189)" fill="url(#a)"/><path d="M228.723 173.615c8.751 8.876 12.423 20.7 8.641 32.755-.166.511.635.732.8.221 3.893-12.354.083-24.487-8.862-33.556-.372-.386-.952.193-.579.58z" transform="translate(86.965 65.82)" fill="url(#a)"/><path d="M184.416 183.379a36.206 36.206 0 0 0 5.521 38.746c.345.4.939-.179.58-.58a35.489 35.489 0 0 1-5.425-37.752c.221-.483-.5-.9-.718-.414z" transform="translate(68.908 69.721)" fill="url(#a)"/><path d="M184.831 184.643c-2.512 11.388 1.38 21.892 8.282 30.781.331.414.911-.179.58-.594-6.777-8.627-10.587-18.869-8.13-29.967.11-.525-.69-.745-.8-.221z" transform="translate(70.025 70.169)" fill="url(#a)"/><path d="M191.5 174.677c9.455-7.481 21.685-11.264 33.459-7.288.511.18.732-.621.221-.787-12.05-4.072-24.57-.179-34.26 7.5-.414.331.166.911.58.58z" transform="translate(72.578 62.798)" fill="url(#a)"/><path d="M183.529 186.343a35.6 35.6 0 0 0 7.357 30.768c.331.428.911-.166.594-.58a34.688 34.688 0 0 1-7.15-29.967c.124-.525-.677-.746-.801-.221z" transform="translate(69.478 70.816)" fill="url(#a)"/><path d="M233.685 211.031c-7.412 6.446-17.516 10.932-27.5 9.593-.524 0-.524.759 0 .828 10.2 1.38 20.512-3.258 28.09-9.842.404-.345-.19-.938-.59-.579z" transform="translate(78.29 80.277)" fill="url(#a)"/><path d="M206.208 218.113a23.838 23.838 0 0 1-3.893-1.173c-.483-.207-.7.594-.221.787a22.574 22.574 0 0 0 3.893 1.173c.513.11.745-.691.221-.787z" transform="translate(76.78 82.554)" fill="url(#a)"/><circle cx="2.761" cy="2.761" r="2.761" transform="translate(287.57 230.352)" fill="none"/><circle cx="2.761" cy="2.761" r="2.761" transform="translate(255.823 259.339)" fill="none"/><circle cx="2.761" cy="2.761" r="2.761" transform="translate(317.938 260.72)" fill="none"/><circle cx="1.38" cy="1.38" r="1.38" transform="translate(221.314 223.451)" fill="none"/><circle cx="1.38" cy="1.38" r="1.38" transform="translate(324.839 198.605)" fill="none"/><circle cx="1.38" cy="1.38" r="1.38" transform="translate(316.557 273.143)" fill="none"/><circle cx="1.38" cy="1.38" r="1.38" transform="translate(355.207 299.369)" fill="none"/><circle cx="1.38" cy="1.38" r="1.38" transform="translate(276.528 289.707)" fill="none"/><path d="M206.286 210.307c.248-.373.552-.87.98-1.021s1.284.083 1.118.732a.415.415 0 0 0 .8.221 1.519 1.519 0 0 0-1.38-1.822c-1.063-.166-1.753.676-2.264 1.477-.3.442.414.856.7.414z" transform="translate(78.165 79.317)" fill="url(#a)"/><path d="M189.177 188.715a2.347 2.347 0 0 0 2.636-.994c.511-.676.952-1.85.179-2.512-.4-.345-.98.235-.58.58s-.083 1.215-.359 1.56a1.477 1.477 0 0 1-1.7.58c-.5-.193-.7.607-.221.8z" transform="translate(71.85 70.458)" fill="url(#a)"/><path d="M211.791 172.048c-.221.359-.511.7-.359 1.146a2.4 2.4 0 0 0 .87 1.091 2.347 2.347 0 0 0 2.761-.221.415.415 0 1 0-.58-.594 1.491 1.491 0 0 1-1.767.138 1.519 1.519 0 0 1-.414-.469c-.179-.318 0-.345.138-.676s-.428-.87-.718-.414z" transform="translate(80.418 65.426)" fill="url(#a)"/><path d="M184.11 184.158l.621.469c.4.331.994-.248.58-.58a8.512 8.512 0 0 0-.787-.607c-.424-.303-.842.414-.414.718z" transform="translate(69.974 69.798)" fill="url(#a)"/><path d="M184.832 184.753l.635.469c.4.331.994-.248.58-.58s-.525-.414-.787-.594-.86.402-.428.705z" transform="translate(70.26 70.045)" fill="url(#a)"/><path d="M183.589 183.733a10.782 10.782 0 0 1 .9.663c.414.345.994-.235.593-.58a9.83 9.83 0 0 0-1.077-.8c-.373-.248-.856.428-.414.718z" transform="translate(69.777 69.644)" fill="url(#a)"/><path d="M184.69 184.578a14.648 14.648 0 0 1 1.173.9c.4.345.994-.235.594-.58a15.979 15.979 0 0 0-1.38-1.035c-.442-.3-.856.414-.414.718z" transform="translate(70.181 69.958)" fill="url(#a)"/><path d="M158.322 164.826a1.228 1.228 0 0 1 .235-1.491c.359-.387-.221-.966-.594-.58a2.057 2.057 0 0 0-.359 2.5c.318.413 1.049-.001.718-.429z" transform="translate(59.859 61.91)" fill="url(#a)"/><path d="M252.152 228.487a3.837 3.837 0 0 0 4.141-.538c.4-.345-.179-.925-.58-.58a2.954 2.954 0 0 1-3.189.4c-.483-.221-.9.483-.428.718z" transform="translate(95.822 86.493)" fill="url(#a)"/><path d="M216.283 179.906c10.7-15.529 21.34-31.334 33.128-46.117.318-.414-.262-.994-.593-.58-11.76 14.839-22.444 30.7-33.2 46.283-.3.442.414.856.718.414z" transform="translate(81.999 50.667)" fill="url(#a)"/><path d="M240.266 134.107c.566-.883 1.3-1.5 2.374-1.021.469.235.9-.483.414-.7a2.581 2.581 0 0 0-3.506 1.311c-.289.438.429.852.718.41z" transform="translate(91.102 50.308)" fill="url(#a)"/><circle cx="1.38" cy="1.38" r="1.38" transform="translate(257.203 260.72)" fill="none"/><circle cx="1.38" cy="1.38" r="1.38" transform="translate(288.951 231.733)" fill="none"/><circle cx="1.38" cy="1.38" r="1.38" transform="translate(319.318 262.1)" fill="none"/><circle cx="1.38" cy="1.38" r="1.38" transform="translate(288.951 291.087)" fill="none"/><path d="M337.6 2.224c1.049-2 4.072-1.532 5.687-.594 1.836 1.077 3.451 3.465 2.761 5.646a.415.415 0 1 0 .8.221c.8-2.761-1.3-5.7-3.713-6.9-1.96-.925-5.149-1.077-6.308 1.146-.235.483.469.9.718.428z" transform="translate(128.106 .042)" fill="url(#a)"/><path d="M1.8 56.4c-1.96-1.684-.607-5.176.966-6.681S7.142 46.956 9.2 48.1c.456.276.87-.442.414-.718-2.554-1.5-6.06.083-7.813 2.167s-2.761 5.521-.538 7.44c.4.345.994-.248.594-.594z" transform="translate(.014 17.853)" fill="url(#a)"/><path d="M55.719 405.05c-1.38 1.767.856 5.011 2.416 5.949 2.015 1.187 5.328 1.7 7.095-.083.373-.386-.207-.966-.58-.593-1.38 1.38-3.547.966-5.162.386a4.417 4.417 0 0 1-2.374-1.919c-.469-.759-1.38-2.416-.676-3.327.316-.427-.402-.841-.719-.413z" transform="translate(21.047 154.042)" fill="url(#a)"/><path d="M413.743 338.7a7.372 7.372 0 0 0 5.411-1.781c1.725-1.38 1.781-3.575 1.56-5.632 0-.524-.883-.538-.828 0 .18 1.67.276 3.492-1.021 4.776a6.819 6.819 0 0 1-4.9 1.849c-.526-.121-.747.68-.222.788z" transform="translate(157.265 125.906)" fill="url(#a)"/><path d="M417.8 333.9l.386.179c.469.221.9-.5.414-.718l-.387-.18c-.483-.233-.897.485-.413.719z" transform="translate(158.84 126.76)" fill="url(#a)"/></svg>